<?xml version="1.0" standalone="no"?>
<!DOCTYPE svg PUBLIC "-//W3C//DTD SVG 20010904//EN"
 "http://www.w3.org/TR/2001/REC-SVG-20010904/DTD/svg10.dtd">
<svg version="1.0" xmlns="http://www.w3.org/2000/svg"
 width="753.000000pt" height="753.000000pt" viewBox="0 0 753.000000 753.000000"
 preserveAspectRatio="xMidYMid meet">
<metadata>
Created by potrace 1.14, written by Peter Selinger 2001-2017
</metadata>
<g transform="translate(0.000000,753.000000) scale(0.100000,-0.100000)"
fill="#000000" stroke="none">
<path d="M3529 7515 c-2 -2 -42 -6 -89 -10 -348 -26 -694 -107 -1060 -248
-120 -47 -358 -160 -450 -216 -19 -11 -53 -30 -75 -42 -73 -39 -308 -201 -404
-277 -233 -186 -462 -411 -613 -603 -23 -30 -45 -56 -48 -59 -19 -16 -215
-302 -249 -362 -10 -20 -25 -46 -33 -59 -7 -13 -16 -26 -19 -29 -12 -10 -188
-376 -219 -455 -31 -79 -119 -331 -119 -340 0 -3 -7 -31 -16 -63 -10 -31 -19
-65 -20 -75 -2 -9 -10 -43 -18 -75 -8 -31 -18 -77 -22 -102 -4 -25 -9 -52 -10
-60 -8 -43 -19 -106 -20 -110 -1 -3 -5 -34 -9 -70 -5 -36 -10 -72 -11 -80 -18
-97 -25 -529 -12 -705 28 -368 112 -728 250 -1080 49 -124 181 -398 248 -515
33 -56 159 -251 169 -260 3 -3 20 -27 39 -55 85 -123 252 -317 396 -460 333
-330 690 -575 1135 -778 151 -69 431 -166 570 -197 30 -7 66 -16 80 -21 14 -5
36 -11 50 -13 195 -38 200 -39 290 -51 90 -12 101 -13 195 -22 111 -10 531
-10 640 -1 110 10 256 30 350 48 28 5 64 12 82 15 18 3 101 23 185 44 184 48
349 103 533 180 63 27 312 150 380 189 413 236 819 587 1111 962 50 64 168
228 191 266 65 105 154 256 168 284 9 19 30 60 45 90 142 280 285 701 325 960
4 25 9 54 12 65 2 11 8 49 14 85 5 36 11 79 14 95 2 17 7 64 10 105 4 41 8 93
11 115 5 54 5 454 0 485 -3 14 -7 61 -10 105 -3 44 -8 89 -10 100 -2 11 -7 43
-10 70 -6 48 -21 132 -31 185 -3 14 -8 39 -10 55 -3 17 -19 84 -36 150 -62
254 -158 509 -279 752 -95 189 -121 234 -216 378 -103 156 -117 176 -229 315
-494 615 -1192 1069 -1960 1275 -159 43 -384 85 -535 100 -36 4 -81 9 -100 12
-42 6 -546 13 -551 8z"/>
</g>
</svg>
